<svg viewBox="190.2866 148.1715 589.4267 214.0606" width="5000" height="1815.8373212479178" xmlns="http://www.w3.org/2000/svg" xmlns:xlink="http://www.w3.org/1999/xlink" preserveAspectRatio="none"><defs></defs><style>.companyName {fill:#000000;fill-opacity:1;}.icon1 {fill:#000000;fill-opacity:1;}.icon2 {fill:#3F3F3F;fill-opacity:1;}.icon3 {fill:#797979;fill-opacity:1;}</style><g opacity="1" transform="rotate(0 190.2866 274.9387)">
<svg width="408.1295" height="87.2934" x="190.2866" y="274.9387" version="1.1" preserveAspectRatio="none" viewBox="0.0977 -25.5273 122.3437 26.1719">
  <g transform="matrix(1 0 0 1 0 0)" class="companyName"><path d="M12.95-2.79L12.68 0L20.70 0L21.15-3.03L19.22-4.14L19.22-12.52Q19.22-15.43 17.95-16.79Q16.68-18.14 14.41-18.14L14.41-18.14Q12.71-18.14 11.27-17.28Q9.82-16.41 8.18-14.67L8.18-14.67L7.89-14.67L8.40-17.54L8.40-24.59L7.62-25.47L0.76-24.94L0.20-22.13L2.56-20.55L2.56-4.20L0.51-2.79L0.10 0L10.63 0L11.17-2.97L8.77-4.20L8.77-11.86Q9.92-12.50 10.88-12.50L10.88-12.50Q11.97-12.50 12.50-11.87Q13.03-11.23 13.03-9.65L13.03-9.65L13.03-3.69L12.95-2.79Z M30.43 0.64Q33.26 0.64 35.24-0.55Q37.23-1.74 38.26-4.03Q39.30-6.33 39.30-9.59L39.30-9.59Q39.30-14.02 37.15-16.31Q35-18.59 30.84-18.59L30.84-18.59Q28.48-18.59 26.39-17.42Q24.30-16.25 23.03-14.04Q21.76-11.84 21.76-8.91L21.76-8.91Q21.76-4.16 23.83-1.76Q25.90 0.64 30.43 0.64L30.43 0.64ZM30.10-14.34Q31.37-14.34 32.03-12.49Q32.70-10.64 32.70-8.16L32.70-8.16Q32.70-5.84 32.30-4.67Q31.91-3.50 31.04-3.50L31.04-3.50Q30.23-3.50 29.61-4.25Q28.98-5 28.63-6.37Q28.28-7.73 28.28-9.55L28.28-9.55Q28.28-11.97 28.68-13.15Q29.08-14.34 30.10-14.34L30.10-14.34Z M48.67-24.65L47.89-25.53L40.74-25L40.18-22.19L42.54-20.61L42.54-4.20L40.49-2.79L40.08 0L50.16 0L50.61-3.03L48.67-4.14L48.67-24.65Z M56.17-19.10Q58.32-19.10 59.38-19.99Q60.43-20.88 60.43-22.21L60.43-22.21Q60.43-23.03 59.96-23.71Q59.49-24.39 58.54-24.79Q57.58-25.20 56.21-25.20L56.21-25.20Q54.77-25.20 53.74-24.80Q52.71-24.41 52.20-23.74Q51.68-23.07 51.68-22.23L51.68-22.23Q51.68-20.84 52.73-19.97Q53.79-19.10 56.17-19.10L56.17-19.10ZM59.34-17.03L58.55-17.91L51.41-17.38L50.84-14.57L53.20-12.99L53.20-4.20L51.15-2.79L50.74 0L60.82 0L61.27-3.03L59.34-4.14L59.34-17.03Z M68.07 0.64Q70.20 0.64 71.86-0.17Q73.52-0.98 74.43-2.29Q75.35-3.61 75.35-5.08L75.35-5.08Q75.35-6.52 74.53-7.71Q73.71-8.91 72.60-9.76Q71.48-10.61 69.79-11.68L69.79-11.68Q68.34-12.60 67.70-13.13Q67.05-13.67 67.05-14.18L67.05-14.18Q67.05-14.41 67.24-14.56Q67.42-14.71 67.75-14.71L67.75-14.71Q68.83-14.71 69.80-13.69Q70.78-12.68 71.58-11.21L71.58-11.21Q72.34-11.27 73.14-11.69Q73.95-12.11 74.48-12.81Q75.02-13.52 75.02-14.34L75.02-14.34Q75.02-16.45 73.52-17.48Q72.01-18.52 69.79-18.52L69.79-18.52Q67.62-18.52 65.84-17.71Q64.06-16.91 63.05-15.52Q62.03-14.12 62.03-12.40L62.03-12.40Q62.03-10.96 62.83-9.78Q63.63-8.59 64.73-7.75Q65.82-6.91 67.48-5.88L67.48-5.88Q68.96-4.94 69.61-4.41Q70.25-3.89 70.27-3.34L70.27-3.34Q70.27-3.03 70.05-2.82Q69.82-2.62 69.43-2.62L69.43-2.62Q68.01-2.62 66.96-3.73Q65.92-4.84 64.86-6.97L64.86-6.97Q64.02-6.95 63.28-6.48Q62.54-6.02 62.09-5.27Q61.64-4.53 61.64-3.69L61.64-3.69Q61.64-2.38 62.46-1.40Q63.28-0.41 64.75 0.12Q66.21 0.64 68.07 0.64L68.07 0.64Z M77.93-13.54L77.83-6.66Q77.79-3.95 78.28-2.42Q78.77-0.90 79.99-0.22Q81.21 0.45 83.44 0.45L83.44 0.45Q85.64 0.45 86.96-0.36Q88.28-1.17 89.18-2.40L89.18-2.40L88.59-5Q88.52-4.96 88.19-4.82Q87.87-4.69 87.38-4.56Q86.89-4.43 86.41-4.43L86.41-4.43Q85.35-4.43 84.86-4.94Q84.38-5.45 84.26-6.24Q84.14-7.03 84.16-8.40L84.16-8.40L84.22-13.67L88.63-12.89L89.06-16.72L84.30-16.41L84.49-20.84L80.92-21.04Q79.90-20.16 78.40-18.74Q76.89-17.32 76.02-16.45L76.02-16.45L75.78-13.93L77.93-13.54Z M98.20 0.61Q100.21 0.61 101.61 0.01Q103.01-0.59 103.89-1.51Q104.77-2.44 105.57-3.75L105.57-3.75L103.63-6.15Q102.91-5.49 101.75-5.08Q100.59-4.67 99.57-4.67L99.57-4.67Q98.01-4.67 97.25-5.29Q96.48-5.92 96.45-7.17L96.45-7.17L104.61-7.44Q104.71-7.99 104.86-9.42Q105.02-10.86 105.02-11.33L105.02-11.33Q105.02-13.42 104.33-15.06Q103.63-16.70 102.29-17.63Q100.94-18.55 99.04-18.55L99.04-18.55Q96.45-18.55 94.39-17.26Q92.34-15.96 91.19-13.64Q90.04-11.33 90.04-8.40L90.04-8.40Q90.04-5.49 91.06-3.46Q92.09-1.43 93.94-0.41Q95.78 0.61 98.20 0.61L98.20 0.61ZM97.62-14.55Q98.32-14.55 98.68-13.69Q99.04-12.83 99.04-11.37L99.04-11.37Q99.04-10.80 98.98-10.18L98.98-10.18L96.35-9.73Q96.25-10.90 96.25-11.58L96.25-11.58Q96.25-13.14 96.59-13.85Q96.93-14.55 97.62-14.55L97.62-14.55Z M106.37-2.79L105.96 0L118.38 0L118.73-3.28L114.39-4.51L114.39-10.35Q115.70-10.94 118.01-10.94L118.01-10.94Q119.38-10.94 121.19-10.47L121.19-10.47Q122.03-12.54 122.03-14.47L122.03-14.47Q122.03-16.13 121.29-17.15Q120.55-18.16 118.83-18.16L118.83-18.16Q117.48-18.16 116.17-16.77Q114.86-15.37 114.02-12.85L114.02-12.85L113.65-12.85L113.65-17.17L112.91-17.93L106.52-17.36L106.00-14.67L108.34-13.14L108.42-4.20L106.37-2.79Z"/></g>
</svg>
</g><g opacity="0.2" transform="rotate(0 585.5386 148.1715)">
<svg width="194.1747" height="186.3383" x="585.5386" y="148.1715" version="1.1" preserveAspectRatio="none" viewBox="8 8.705999374389648 84 80.61000061035156">
  <g transform="matrix(1 0 0 1 0 0)" class="icon1"><g><path d="M56.366,16h-3.581c-1.033-4-4.967-7.294-9.666-7.294C37.633,8.706,33.185,13,33.185,19h2.976h16.89h5.439L56.366,16z"></path><path d="M43.119,30.933c5.486,0,9.933-4.933,9.933-9.933H33.185C33.185,26,37.633,30.933,43.119,30.933z"></path><path d="M69.132,58l-9.438-21.06C58.682,34.711,56.461,33,54.013,33H35.048c-3.006,0-5.584,2.362-6.135,5.317L26.38,52.031   c8.029,1.807,14.028,9.011,14.028,17.586c0,1.862-0.283,3.383-0.808,5.383h8.975c2.073,0,3.784-1.602,3.894-3.673l1.175-21.976   l9.35,16.547l16.781-0.681L86.163,58H69.132z"></path><path d="M13.266,81.611L24,73.904v4.456c4-0.933,7.123-4.438,7.123-8.767c0-4.915-3.77-9.067-8.648-9.067   C17.423,60.526,14,65,14,69v2H8v-2c0-7.848,6.615-14.479,14.714-14.479c8.072,0,14.528,6.965,14.528,15.209   c0,7.487-5.242,13.82-13.242,14.758v4.828L13.266,81.611z"></path><path d="M92,35.08c0-1.149-0.931-2.08-2.08-2.08H72.08C70.931,33,70,33.931,70,35.08v17.84c0,1.149,0.931,2.08,2.08,2.08h17.84   c1.149,0,2.08-0.931,2.08-2.08V35.08z M85,41.74c0,0.144-0.116,0.26-0.26,0.26h-7.48C77.116,42,77,41.884,77,41.74v-2.48   c0-0.144,0.116-0.26,0.26-0.26h7.48c0.144,0,0.26,0.116,0.26,0.26V41.74z"></path></g></g>
</svg>
</g></svg>